Coordinates
version=1
nRows=38
nColumns=38
inDegrees=no

Units are S.I. units (second, meters, Newtons, ...)
If the header above contains a line with 'inDegrees', this indicates whether rotational values are in degrees (yes) or radians (no).

endheader
time	pelvis_tilt	pelvis_list	pelvis_rotation	pelvis_tx	pelvis_ty	pelvis_tz	hip_flexion_r	hip_adduction_r	hip_rotation_r	knee_angle_r	ankle_angle_r	subtalar_angle_r	mtp_angle_r	hip_flexion_l	hip_adduction_l	hip_rotation_l	knee_angle_l	ankle_angle_l	subtalar_angle_l	mtp_angle_l	lumbar_extension	lumbar_bending	lumbar_rotation	arm_flex_r	arm_add_r	arm_rot_r	elbow_flex_r	pro_sup_r	wrist_flex_r	wrist_dev_r	arm_flex_l	arm_add_l	arm_rot_l	elbow_flex_l	pro_sup_l	wrist_flex_l	wrist_dev_l
0.63	3.11504	1.26808	-1.38176	0.776179	0.0763776	0.932791	0.149996	-0.0400044	-0.301183	0.252172	-0.0913348	0	0	-0.523599	-0.043368	-0.141131	0.206026	-0.152356	0	0	-0.325602	0.108895	0.121248	-0.150393	-0.716248	-0.0918358	1.60256	0.641676	0	0	0.571117	-0.505674	0.664871	1.13281	0.766058	0	0
0.64	3.1174	1.27019	-1.38418	0.776716	0.0875072	0.931117	0.146958	-0.0355485	-0.300212	0.245205	-0.0974633	0	0	-0.523599	-0.0465857	-0.142717	0.217884	-0.145249	0	0	-0.321971	0.108254	0.119938	-0.1493	-0.713879	-0.0906319	1.60157	0.647224	0	0	0.565292	-0.506225	0.658937	1.13418	0.770597	0	0
0.65	3.12094	1.27216	-1.38721	0.77709	0.0987135	0.929396	0.149115	-0.0336417	-0.300109	0.263214	-0.0978322	0	0	-0.523599	-0.0496329	-0.143605	0.231952	-0.138794	0	0	-0.318451	0.10764	0.119095	-0.150171	-0.712575	-0.0909564	1.60166	0.650907	0	0	0.561331	-0.506283	0.655893	1.13462	0.773794	0	0
0.66	3.12472	1.27335	-1.38977	0.777309	0.110022	0.927687	0.152738	-0.0325266	-0.296913	0.296909	-0.0931714	0	0	-0.523599	-0.0531349	-0.145171	0.248732	-0.133259	0	0	-0.315712	0.107552	0.1188	-0.153265	-0.71273	-0.0927779	1.60324	0.65218	0	0	0.559275	-0.505734	0.655895	1.13422	0.773503	0	0
0.67	3.12759	1.2738	-1.39039	0.777454	0.121526	0.926026	0.15523	-0.0304775	-0.290794	0.336188	-0.0836401	0	0	-0.523599	-0.0578763	-0.147565	0.269097	-0.128132	0	0	-0.313352	0.108232	0.118041	-0.157549	-0.713395	-0.0951872	1.60564	0.652494	0	0	0.557657	-0.50491	0.656673	1.13343	0.771521	0	0
0.68	3.12734	1.27328	-1.3868	0.777651	0.133201	0.924571	0.153873	-0.0256229	-0.282097	0.366531	-0.071632	0	0	-0.523599	-0.0647056	-0.149961	0.292547	-0.124516	0	0	-0.311679	0.110322	0.116157	-0.161599	-0.714078	-0.0967723	1.60835	0.654369	0	0	0.555418	-0.504404	0.656549	1.13284	0.770459	0	0
0.69	3.12192	1.27168	-1.37765	0.777903	0.144923	0.923471	0.149674	-0.0183843	-0.27318	0.382182	-0.068829	0	0	-0.523599	-0.0737326	-0.151978	0.318954	-0.12333	0	0	-0.311082	0.114569	0.113774	-0.16478	-0.715128	-0.0973185	1.61089	0.655948	0	0	0.552203	-0.503926	0.655118	1.13249	0.770384	0	0
0.7	3.11172	1.26953	-1.36418	0.778176	0.156632	0.922739	0.145355	-0.0101864	-0.265945	0.387014	-0.0840426	0	0	-0.523599	-0.0840488	-0.15279	0.348994	-0.123775	0	0	-0.311232	0.120727	0.111889	-0.167798	-0.716411	-0.0979018	1.61359	0.656422	0	0	0.547862	-0.50274	0.651965	1.13215	0.771076	0	0
0.71	3.09992	1.26731	-1.34931	0.77846	0.168454	0.922292	0.140759	-0.00207072	-0.262372	0.387877	-0.112238	0	0	-0.523599	-0.0948424	-0.150433	0.384233	-0.125989	0	0	-0.311141	0.127508	0.110228	-0.171223	-0.717641	-0.0985637	1.61629	0.655786	0	0	0.542835	-0.50105	0.648159	1.13157	0.772219	0	0
0.72	3.08983	1.26445	-1.33617	0.778825	0.18052	0.922137	0.132719	0.00591296	-0.262458	0.387686	-0.146406	0	0	-0.523599	-0.105579	-0.144883	0.42283	-0.131188	0	0	-0.311072	0.133592	0.108733	-0.174904	-0.718871	-0.0989506	1.61795	0.656396	0	0	0.537929	-0.499712	0.645456	1.13095	0.77381	0	0
0.73	3.08195	1.26072	-1.32588	0.779408	0.192772	0.922266	0.121889	0.0133693	-0.263624	0.390193	-0.176647	0	0	-0.523599	-0.116	-0.135769	0.464693	-0.140725	0	0	-0.311585	0.138605	0.107816	-0.178452	-0.719434	-0.0990105	1.61882	0.656941	0	0	0.533541	-0.499538	0.644353	1.13058	0.775163	0	0
0.74	3.07507	1.25556	-1.31819	0.780252	0.204957	0.922747	0.110885	0.0202665	-0.263306	0.399209	-0.199582	0	0	-0.523599	-0.126013	-0.125613	0.512012	-0.155048	0	0	-0.314079	0.142964	0.108371	-0.181189	-0.720224	-0.0979559	1.61936	0.658229	0	0	0.529746	-0.500463	0.644319	1.13083	0.775989	0	0
0.75	3.06545	1.25213	-1.30986	0.781372	0.21711	0.923328	0.104775	0.0266423	-0.260261	0.416162	-0.216404	0	0	-0.511439	-0.136318	-0.117132	0.566875	-0.175567	0	0	-0.315208	0.147097	0.110629	-0.183528	-0.720694	-0.0964559	1.61938	0.658979	0	0	0.525132	-0.501764	0.643917	1.13193	0.774477	0	0
0.76	3.05291	1.25008	-1.30028	0.782608	0.229213	0.923883	0.101734	0.0324947	-0.257751	0.437163	-0.225448	0	0	-0.492311	-0.14675	-0.107598	0.628204	-0.200239	0	0	-0.314792	0.151408	0.114493	-0.185965	-0.72132	-0.0952078	1.61911	0.658475	0	0	0.520129	-0.502756	0.643278	1.13328	0.771327	0	0
0.77	3.03833	1.2481	-1.28944	0.783938	0.241207	0.924504	0.0973136	0.0381251	-0.259727	0.455144	-0.229734	0	0	-0.469157	-0.157838	-0.0977373	0.69473	-0.228778	0	0	-0.314373	0.156123	0.119385	-0.188674	-0.722627	-0.094206	1.6194	0.657403	0	0	0.515619	-0.503707	0.643108	1.13497	0.768001	0	0
0.78	3.02416	1.24418	-1.27896	0.785182	0.252949	0.925353	0.0874928	0.0437359	-0.267837	0.466639	-0.230767	0	0	-0.444514	-0.169177	-0.0883171	0.764289	-0.260357	0	0	-0.316658	0.161535	0.124707	-0.191681	-0.725188	-0.0939853	1.62121	0.655919	0	0	0.512251	-0.504521	0.643247	1.13718	0.764919	0	0
0.79	3.01154	1.23776	-1.26952	0.78632	0.264395	0.926447	0.0720044	0.0498146	-0.280174	0.472344	-0.230353	0	0	-0.418976	-0.180835	-0.0801783	0.83571	-0.294736	0	0	-0.322568	0.167598	0.13008	-0.194983	-0.728645	-0.0949154	1.62487	0.653411	0	0	0.510142	-0.505313	0.643536	1.13996	0.761736	0	0
0.8	3.0014	1.23003	-1.26219	0.787418	0.275545	0.927573	0.0536729	0.0562201	-0.292752	0.475347	-0.22884	0	0	-0.392241	-0.19186	-0.0726729	0.907224	-0.327652	0	0	-0.330703	0.173423	0.135665	-0.198526	-0.732865	-0.0967898	1.62985	0.649952	0	0	0.509605	-0.506102	0.64455	1.14277	0.75802	0	0
0.81	2.99379	1.2228	-1.2578	0.788525	0.28636	0.92854	0.0354172	0.0627288	-0.301052	0.477029	-0.22571	0	0	-0.363734	-0.200792	-0.0647916	0.977308	-0.353003	0	0	-0.339562	0.178056	0.142001	-0.20229	-0.737789	-0.0995753	1.63598	0.64566	0	0	0.51048	-0.507034	0.646286	1.14605	0.753927	0	0
0.82	2.98897	1.21716	-1.25658	0.789673	0.296884	0.929326	0.018962	0.0688451	-0.305114	0.479043	-0.220029	0	0	-0.333503	-0.206603	-0.0551268	1.04503	-0.369119	0	0	-0.347645	0.180822	0.148691	-0.205849	-0.742665	-0.10277	1.64229	0.640733	0	0	0.512258	-0.507945	0.648345	1.14943	0.749775	0	0
0.83	2.98637	1.21313	-1.25697	0.790877	0.307238	0.930111	0.00373639	0.074484	-0.307694	0.480447	-0.213168	0	0	-0.301756	-0.20949	-0.0427096	1.1102	-0.378983	0	0	-0.354015	0.181904	0.1545	-0.208408	-0.746258	-0.105317	1.64714	0.636777	0	0	0.51464	-0.508899	0.650689	1.15205	0.74678	0	0
0.84	2.98605	1.20895	-1.25934	0.79201	0.317358	0.931183	-0.0126228	0.0796847	-0.308805	0.480006	-0.20535	0	0	-0.270887	-0.209473	-0.029364	1.1719	-0.382853	0	0	-0.360798	0.181966	0.160169	-0.210112	-0.749435	-0.107504	1.65049	0.633047	0	0	0.517744	-0.50897	0.653192	1.15354	0.743962	0	0
0.85	2.98889	1.20356	-1.2638	0.792993	0.327282	0.932701	-0.0323178	0.0845329	-0.308562	0.475782	-0.198364	0	0	-0.242271	-0.207324	-0.0154828	1.22818	-0.371321	0	0	-0.368924	0.181114	0.164787	-0.210361	-0.751745	-0.108774	1.6517	0.629438	0	0	0.521563	-0.508391	0.655958	1.15353	0.741807	0	0
0.86	2.99422	1.19647	-1.26928	0.793852	0.337159	0.934612	-0.056595	0.0896935	-0.306335	0.466344	-0.19266	0	0	-0.216738	-0.203414	-0.000710555	1.27979	-0.337773	0	0	-0.378698	0.179868	0.168147	-0.210004	-0.753326	-0.109595	1.65172	0.625776	0	0	0.526509	-0.508219	0.660271	1.15258	0.74185	0	0
0.87	3.00291	1.18881	-1.27657	0.794701	0.347088	0.936817	-0.084122	0.0943075	-0.304053	0.452683	-0.189457	0	0	-0.193154	-0.197974	0.0133834	1.3251	-0.296586	0	0	-0.388477	0.177313	0.169628	-0.208727	-0.752968	-0.109654	1.65006	0.623468	0	0	0.531123	-0.508087	0.664024	1.15109	0.74118	0	0
0.88	3.01306	1.18098	-1.28563	0.79555	0.356979	0.939161	-0.113385	0.0985108	-0.300897	0.436026	-0.187842	0	0	-0.171132	-0.191467	0.023968	1.36317	-0.259581	0	0	-0.398446	0.173919	0.1709	-0.207022	-0.752108	-0.109333	1.64815	0.622174	0	0	0.535416	-0.508014	0.667329	1.14985	0.73949	0	0
0.89	3.02351	1.16844	-1.29626	0.796549	0.366418	0.941977	-0.148416	0.103864	-0.297292	0.415937	-0.189705	0	0	-0.155462	-0.186178	0.0294067	1.39169	-0.23258	0	0	-0.414638	0.171011	0.174107	-0.204579	-0.752286	-0.109686	1.64753	0.620894	0	0	0.541807	-0.508349	0.671824	1.14937	0.737665	0	0
0.9	3.03381	1.16315	-1.30757	0.797638	0.37643	0.944201	-0.174734	0.105605	-0.298203	0.400156	-0.190904	0	0	-0.133262	-0.179003	0.0320024	1.41314	-0.215951	0	0	-0.422261	0.165684	0.176692	-0.204114	-0.750362	-0.110173	1.64672	0.619569	0	0	0.545323	-0.509227	0.675382	1.14898	0.736451	0	0
0.91	3.04361	1.15948	-1.31984	0.798861	0.386438	0.946227	-0.198367	0.106177	-0.301173	0.385902	-0.192782	0	0	-0.110931	-0.171558	0.03268	1.42729	-0.203718	0	0	-0.428295	0.15952	0.180312	-0.203986	-0.747765	-0.110984	1.64623	0.616667	0	0	0.548337	-0.509928	0.678347	1.14833	0.735151	0	0
0.92	3.05314	1.15641	-1.33318	0.800151	0.396376	0.948099	-0.220664	0.105913	-0.305374	0.37279	-0.195031	0	0	-0.0894431	-0.164068	0.0314058	1.43499	-0.194899	0	0	-0.433881	0.152852	0.185143	-0.204043	-0.746232	-0.111822	1.64584	0.615289	0	0	0.551264	-0.51041	0.680826	1.14768	0.733361	0	0
0.93	3.06289	1.15382	-1.34763	0.801491	0.406287	0.949809	-0.242104	0.104891	-0.308861	0.360457	-0.19699	0	0	-0.0688947	-0.156891	0.0275031	1.43633	-0.187295	0	0	-0.438928	0.14563	0.190645	-0.204016	-0.74555	-0.112517	1.64541	0.616657	0	0	0.554155	-0.511077	0.683173	1.14742	0.731243	0	0
0.94	3.07176	1.15174	-1.36199	0.802835	0.416181	0.951302	-0.26281	0.103921	-0.310555	0.348282	-0.198202	0	0	-0.0491725	-0.150775	0.0202171	1.43194	-0.178358	0	0	-0.443322	0.138457	0.196827	-0.204278	-0.745024	-0.113506	1.64568	0.617684	0	0	0.556624	-0.511884	0.684987	1.14797	0.729892	0	0
0.95	3.07899	1.14993	-1.37563	0.804169	0.426057	0.952536	-0.282672	0.10322	-0.310514	0.337128	-0.197845	0	0	-0.0306802	-0.146141	0.00975495	1.4219	-0.167321	0	0	-0.447236	0.131721	0.20387	-0.204982	-0.744976	-0.114763	1.64678	0.617161	0	0	0.558558	-0.51269	0.686083	1.14944	0.729273	0	0
0.96	3.08588	1.15363	-1.38908	0.805446	0.436432	0.953073	-0.295801	0.10065	-0.310881	0.328919	-0.195217	0	0	-0.00758984	-0.141759	-0.00307446	1.4078	-0.156205	0	0	-0.444012	0.124113	0.210176	-0.206811	-0.743379	-0.1158	1.64733	0.615285	0	0	0.558002	-0.513801	0.686168	1.15127	0.729089	0	0
0.97	3.08986	1.15269	-1.40043	0.806895	0.446475	0.953814	-0.31352	0.100614	-0.309645	0.319818	-0.19237	0	0	0.00959699	-0.143002	-0.0217936	1.38752	-0.148484	0	0	-0.445923	0.118067	0.217829	-0.207118	-0.742651	-0.116487	1.64807	0.612216	0	0	0.558908	-0.515009	0.686397	1.15326	0.728615	0	0
0.98	3.09215	1.15004	-1.41097	0.808222	0.4565	0.954446	-0.332699	0.101037	-0.308411	0.311007	-0.189687	0	0	0.0243522	-0.149967	-0.0502885	1.3631	-0.144993	0	0	-0.449572	0.113117	0.226769	-0.208092	-0.744293	-0.117776	1.64965	0.610893	0	0	0.559934	-0.515663	0.686381	1.15564	0.727023	0	0
0.99	3.09259	1.14303	-1.42195	0.809677	0.466667	0.955226	-0.358003	0.102555	-0.304462	0.298017	-0.188483	0	0	0.0335036	-0.170383	-0.103487	1.33488	-0.152788	0	0	-0.457625	0.108868	0.238931	-0.211074	-0.747053	-0.120972	1.65338	0.60885	0	0	0.561901	-0.516294	0.687572	1.15897	0.724597	0	0
1	3.09409	1.13775	-1.43166	0.810691	0.476573	0.955811	-0.380393	0.102816	-0.301068	0.286777	-0.188722	0	0	0.0415692	-0.182126	-0.141633	1.29925	-0.163681	0	0	-0.464375	0.105148	0.249243	-0.214899	-0.749492	-0.125752	1.65768	0.606132	0	0	0.564382	-0.515839	0.68899	1.16148	0.723245	0	0
